<svg width="80" height="80" viewBox="0 0 80 80" fill="none" xmlns="http://www.w3.org/2000/svg">
<path d="M64 15H40C32.8203 15 27 20.8203 27 28V52C27 59.1797 32.8203 65 40 65H64C71.1797 65 77 59.1797 77 52V28C77 20.8203 71.1797 15 64 15Z" stroke="#00C680" stroke-width="6"/>
<path opacity="0.5" d="M10.65 10.194L51.556 35.76C54.689 37.718 54.689 42.282 51.556 44.24L10.65 69.806L12.24 72.35L10.65 69.806C7.32 71.887 3 69.493 3 65.566V14.434C3 10.507 7.32 8.113 10.65 10.194V10.194Z" stroke="#00C680" stroke-width="6"/>
</svg>
