<svg width="28" height="34" viewBox="0 0 28 34" fill="none" xmlns="http://www.w3.org/2000/svg">
<path d="M0.102998 24.253V29.69C0.102998 32.723 1.916 33.232 3.422 33.232C5.662 33.232 6.689 31.724 6.689 29.654V24.254H5.201V29.847C5.201 30.549 4.978 31.864 3.404 31.847C1.984 31.829 1.711 30.479 1.711 29.602V24.253H0.102998V24.253ZM12.883 24.622C12.883 24.622 11.942 24.131 10.863 24.131C9.529 24.131 7.836 24.832 7.836 26.761C7.836 28.094 8.794 28.725 9.444 29.058C9.786 29.234 10.214 29.427 10.556 29.619C10.727 29.725 11.446 29.97 11.446 30.759C11.446 31.601 10.539 31.899 10.146 31.899C8.708 31.899 7.716 31.233 7.716 31.233L7.87 32.933C7.87 32.933 8.452 33.249 10.23 33.249C11.907 33.249 13.122 32.127 13.122 30.601C13.122 29.427 12.335 28.725 11.668 28.391C11.138 28.129 10.83 27.989 10.385 27.761C9.923 27.533 9.461 27.164 9.461 26.568C9.461 25.937 10.026 25.481 10.864 25.481C12.096 25.481 12.592 26.042 12.882 26.235V24.622H12.883ZM23.028 30.321L24.208 26.884L25.27 30.321H23.028ZM15.928 30.321L17.108 26.884L18.152 30.321H15.928V30.321ZM24.945 24.253H23.165L23.456 24.99L20.701 32.548L17.861 24.253H16.065L16.355 24.99L13.413 33.04H15.021L15.535 31.514H18.58L19.093 33.039H22.122L22.635 31.514H25.68L26.193 33.039H27.973L24.945 24.253V24.253ZM0.0169983 14.38L0.0859983 17.133C0.0859983 17.133 0.735998 16.643 1.472 16.643C2.207 16.643 3.045 17.186 3.045 17.186L9.632 21.131L10.196 18.641L3.046 14.345C3.046 14.345 2.224 13.802 1.472 13.802C0.752998 13.802 0.0169983 14.38 0.0169983 14.38V14.38Z" fill="#001A3A"/>
<path d="M0.0169983 10.784L0.0859983 13.537C0.0859983 13.537 0.735998 13.047 1.472 13.047C2.207 13.047 3.045 13.59 3.045 13.59L10.333 17.956L10.881 15.466L3.045 10.749C3.045 10.749 2.225 10.206 1.472 10.206C0.752998 10.223 0.0169983 10.784 0.0169983 10.784V10.784Z" fill="#001A3A"/>
<path d="M0.0169983 7.18999L0.0859983 9.94299C0.0859983 9.94299 0.735998 9.45199 1.472 9.45199C2.207 9.45199 3.045 9.99499 3.045 9.99499L11.052 14.8L11.599 12.31L3.045 7.17199C3.045 7.17199 2.225 6.62799 1.472 6.62799C0.752998 6.62799 0.0169983 7.18999 0.0169983 7.18999V7.18999Z" fill="#001A3A"/>
<path d="M13.738 2.823L14.474 6.068L24.5 12.083C24.5 12.083 25.287 12.627 26.057 12.627C26.827 12.627 27.527 12.065 27.527 12.065L27.459 9.295C27.459 9.295 26.826 9.785 26.057 9.785C25.287 9.785 24.5 9.242 24.5 9.242L16.75 4.595L16.22 2.508C16.22 2.42 16.288 2.385 16.322 2.368L17.639 1.947C17.81 1.947 17.913 2.104 17.913 2.227L17.981 2.367C18.033 2.385 18.221 2.297 18.238 2.28V1.49C18.238 0.947 17.81 0.456 17.246 0.456H15.928C15.928 0.456 15.74 0 15.175 0H12.678C12.028 0 11.856 0.631 11.856 0.631L10.128 7.821L3.045 3.578C3.045 3.578 2.275 3.034 1.471 3.034C0.667 3.034 0 3.595 0 3.595L0.068 6.348C0.068 6.348 0.668 5.858 1.454 5.858C2.258 5.858 3.028 6.401 3.028 6.401L11.737 11.627L13.738 2.823V2.823Z" fill="#001A3A"/>
<path d="M14.68 6.94501L15.415 10.206L24.516 15.66C24.516 15.66 25.337 16.203 26.073 16.203C26.826 16.203 27.544 15.643 27.544 15.643L27.476 12.889C27.476 12.889 26.894 13.38 26.09 13.38C25.269 13.38 24.533 12.837 24.533 12.837L14.68 6.94501Z" fill="#001A3A"/>
<path d="M15.603 11.1L16.339 14.363L24.499 19.255C24.499 19.255 25.32 19.799 26.056 19.799C26.808 19.799 27.527 19.237 27.527 19.237L27.459 16.484C27.459 16.484 26.877 16.975 26.073 16.975C25.252 16.975 24.516 16.432 24.516 16.432L15.603 11.1Z" fill="#001A3A"/>
<path d="M16.544 15.257L17.28 18.501L24.516 22.832C24.516 22.832 25.337 23.376 26.073 23.376C26.826 23.376 27.544 22.815 27.544 22.815L27.476 20.062C27.476 20.062 26.894 20.552 26.09 20.552C25.269 20.552 24.533 20.009 24.533 20.009L16.544 15.257V15.257Z" fill="#001A3A"/>
</svg>
