<svg width="58" height="25" viewBox="0 0 58 25" fill="none" xmlns="http://www.w3.org/2000/svg">
<path fill-rule="evenodd" clip-rule="evenodd" d="M23.895 19.724C27.415 21.561 31.032 23.275 34.172 24.5C37.883 14.948 44.639 7.356 57.105 0.377003V0.00900269C41.12 5.642 31.127 9.683 23.895 19.724ZM30.438 1.104C26.917 0.825003 8.456 0.128003 0.272003 5.288C2.462 7.241 4.84 9.193 7.695 11.425C15.879 5.846 26.345 3.893 36.052 3.057V2.638C34.149 2.359 32.055 1.801 30.438 1.104V1.104Z" fill="#001A3A"/>
<path fill-rule="evenodd" clip-rule="evenodd" d="M39.405 2.88499C32.078 3.88399 19.231 6.63099 11.904 12.624C14.568 14.372 17.328 16.12 20.183 17.743C27.795 9.12799 38.073 5.25699 48.445 2.63499V2.26099C45.875 2.63499 41.879 2.88499 39.405 2.88499V2.88499Z" fill="#001A3A"/>
</svg>
