<svg width="51" height="30" viewBox="0 0 51 30" fill="none" xmlns="http://www.w3.org/2000/svg">
<path d="M23.698 29.75H5.432C2.432 29.75 0 27.213 0 24.083C0 20.953 2.432 18.417 5.432 18.417C6.284 18.417 7.037 18.313 9.235 19.621L23.698 29.751V29.75ZM22.168 27.874L7.269 17.372C4.822 15.647 4.179 12.18 5.833 9.62699C7.486 7.07399 10.81 6.40299 13.257 8.12799C13.952 8.61799 14.621 8.96599 15.723 11.297L22.168 27.874V27.874ZM21.852 25.417L15.035 7.93799C13.915 5.06799 15.145 1.75499 17.779 0.539993C20.414 -0.675007 23.457 0.666993 24.577 3.53799C24.895 4.35299 25.263 5.03299 24.982 7.64399L21.852 25.417ZM27.003 29.75H45.269C48.269 29.75 50.701 27.213 50.701 24.083C50.701 20.953 48.269 18.417 45.269 18.417C44.417 18.417 43.664 18.313 41.466 19.621L27.003 29.75ZM28.532 27.875L43.431 17.373C45.878 15.648 46.521 12.18 44.867 9.62699C43.214 7.07499 39.89 6.40399 37.443 8.12899C36.748 8.61899 36.079 8.96699 34.977 11.297L28.532 27.875V27.875ZM35.665 7.93799L28.848 25.417L26.077 9.67999C25.837 8.16999 26.061 7.87499 26.481 7.43599C26.8682 7.04234 27.3192 6.71708 27.815 6.47399C27.912 6.42699 27.928 6.28999 27.832 6.23799C27.5382 6.08408 27.2185 5.98577 26.889 5.94799C26.4665 5.90997 26.0416 5.9093 25.619 5.94599C25.627 4.78399 25.843 4.24199 26.058 3.70199L26.124 3.53699C27.244 0.666993 30.287 -0.675007 32.922 0.539993C35.556 1.75499 36.785 5.06699 35.665 7.93799Z" fill="#001A3A"/>
</svg>
