<svg width="38" height="40" viewBox="0 0 38 40" fill="none" xmlns="http://www.w3.org/2000/svg">
<path d="M29.503 5.627C29.597 5.397 29.409 5.179 29.409 5.179C29.409 5.179 27.932 2.65701 22.738 2.08801C19.946 1.79001 16.16 2.359 13.503 3.81C8.67099 6.42701 7.94599 10.752 7.94599 10.752C7.91899 10.861 7.87899 11.186 7.98599 11.322C8.09299 11.457 8.25399 11.457 8.45599 11.39C10.16 10.807 15.221 9.11201 18.416 8.25701C22.966 7.03701 26.711 6.29101 29.1 5.88501C29.288 5.84401 29.436 5.79 29.503 5.627V5.627Z" fill="#001A3A"/>
<path d="M34.698 25.993C31.973 32.176 26.752 36.475 19.893 36.569C14.913 36.637 10.51 34.915 7.329 31.905L5.409 32.732V29.722C3.315 26.875 2.094 23.254 2.094 19.159C2.094 8.651 10.054 0.38 21.168 0.38C22.98 0.38 24.618 0.665 25.852 0.95C23.946 0.34 22.054 0 19.946 0C8.026 0 0 9.763 0 19.837C0 30.807 8.523 40 19.705 40C30.389 40 36.148 32.393 38 27.81L34.698 25.993Z" fill="#001A3A"/>
<path d="M31.933 23.823C33.503 23.647 34.59 23.009 35.181 22.413C35.718 21.871 35.851 21.139 35.851 20.583C35.879 19.769 35.851 17.22 35.851 17.22L31.704 18.129V19.105C31.718 19.755 32.027 20.108 32.698 19.986C32.912 19.946 33.234 19.85 33.234 19.85V20.65C33.234 20.623 33.302 21.098 32.254 21.301C30.886 21.518 30.268 20.664 30.254 19.159C30.282 17.546 31.181 16.624 32.282 16.366C33.516 16.081 34.214 16.38 34.617 16.434C35.986 16.637 36.375 14.563 35.127 14.074C34.201 13.695 33.007 13.627 31.865 13.858C30.335 14.169 27.342 15.458 27.329 19.648C27.315 22.982 29.745 24.068 31.933 23.823V23.823ZM18.443 27.389C18.443 27.389 19.718 26.942 19.825 26.914C20.845 26.562 21.221 25.938 21.221 24.881C21.208 23.728 21.208 21.477 21.208 21.477L24.174 24.921C24.657 25.423 25.261 25.464 25.812 25.301C26.375 25.138 26.858 24.61 26.872 23.864V15.308C26.872 15.308 26.107 15.471 25.476 15.648C24.751 15.851 24.188 16.325 24.188 17.573V20.542C24.188 20.542 22.496 18.413 21.409 17.315C20.832 16.732 19.866 17.085 19.866 17.085L18.443 17.518V27.388V27.389ZM17.543 17.736C17.543 17.736 16.657 17.993 15.933 18.264C14.993 18.604 14.443 19.159 14.443 20.596V28.8C14.443 28.8 15.262 28.516 16.04 28.217C17.127 27.797 17.543 27.227 17.543 26.075V17.737V17.736ZM13.127 19.688C12.8162 19.5335 12.4593 19.4992 12.1248 19.5919C11.7904 19.6845 11.5019 19.8976 11.315 20.19L8.80501 24.515V21.03L5.82501 22.264L5.81201 32.108L7.90601 31.226C7.90601 31.226 8.32201 31.104 8.56401 30.711C8.79201 30.345 8.77801 29.748 8.77801 29.748V26.63L11.114 29.138C11.624 29.681 12.564 29.952 13.395 29.274C14.147 28.664 14.026 27.62 13.61 27.145L11.49 24.99C11.49 24.99 13.355 22.007 13.664 21.519C14.066 20.841 13.865 20.027 13.127 19.689V19.688ZM11.96 31.268C11.852 31.525 12.107 31.783 12.107 31.783C13.181 33.153 17.973 34.888 23.181 33.613C31.128 31.674 32.805 25.993 32.993 25.193C33.033 25.03 33.06 24.773 32.913 24.61C32.792 24.474 32.604 24.474 32.363 24.529C26.833 25.844 17.665 28.678 12.363 30.969C12.134 31.064 12.04 31.105 11.96 31.268V31.268ZM7.24801 18.359C7.23501 17.817 6.81801 17.519 6.10801 17.884V19.634C6.10801 19.634 6.33501 19.524 6.51001 19.444C6.94001 19.24 7.26201 18.888 7.24801 18.359V18.359ZM6.09401 16.773C6.22801 16.718 6.32201 16.678 6.42901 16.623C6.81901 16.433 7.10001 16.068 7.10001 15.607C7.10001 15.077 6.67101 14.942 6.09401 15.241V16.773ZM9.15401 18.101C9.18101 19.484 8.20101 20.216 6.91301 20.745L4.29501 21.87V14.698C4.29501 14.698 5.94601 14.02 6.48301 13.817C8.01301 13.247 8.91301 13.939 8.91301 14.969C8.91301 15.661 8.61701 16.244 7.98601 16.759C8.60401 16.867 9.14101 17.383 9.15401 18.101V18.101ZM14.12 12.053C14.12 11.443 13.704 11.294 13.207 11.43C12.805 11.552 12.335 11.728 12.335 11.728V16.188C12.335 16.636 12.268 17.192 11.717 17.328C11.301 17.436 11.1 17.151 11.1 16.704V13.057C11.1 12.447 10.684 12.27 10.187 12.433C9.62401 12.623 9.30101 12.758 9.30101 12.758V17.178C9.28801 18.656 10.308 19.402 11.838 18.941C13.194 18.534 14.106 17.761 14.12 15.796V12.053V12.053ZM28.698 13.898C29.087 13.816 29.328 13.532 29.328 13.044V12.271L27.208 12.745V11.485C27.208 11.485 28.255 11.268 28.537 11.2C28.899 11.118 29.087 10.915 29.087 10.495V9.763L27.207 10.169V9.166L28.711 8.854C29.127 8.773 29.261 8.488 29.261 8.094V7.336C28.322 7.498 26.537 7.864 25.423 8.122L25.409 14.657C25.409 14.657 27.53 14.155 28.698 13.897V13.898ZM16.403 13.627C16.403 13.627 17.45 13.071 17.45 12.203C17.436 11.458 16.765 11.62 16.416 11.756L16.403 13.626V13.627ZM16.416 14.644V16.406C16.416 16.881 16.094 17.22 15.691 17.383C15.691 17.396 15.691 17.369 15.691 17.383C15.356 17.505 14.631 17.749 14.631 17.749V11.01C14.631 11.01 16.121 10.481 16.993 10.278C18.335 9.953 19.302 10.576 19.288 11.688C19.275 12.745 18.698 13.383 18.174 13.83L19.329 14.942C19.5045 15.1249 19.6014 15.3694 19.5987 15.6229C19.5961 15.8764 19.4943 16.1187 19.315 16.298C19.073 16.528 18.443 16.758 17.959 16.244C17.946 16.244 16.416 14.644 16.416 14.644V14.644ZM31.463 10.007C31.463 10.007 32.496 9.613 32.483 8.773C32.47 8.068 31.785 8.19 31.45 8.271L31.463 10.007V10.007ZM29.718 13.694V7.241C29.718 7.241 31.584 6.901 32.067 6.847C33.409 6.671 34.308 7.43 34.282 8.488C34.268 9.424 33.691 9.993 33.194 10.332C33.194 10.332 34.107 11.362 34.349 11.647C34.671 12.013 34.657 12.65 34.174 12.962C33.9867 13.0914 33.7579 13.1465 33.5323 13.1165C33.3066 13.0866 33.1001 12.9737 32.953 12.8L31.463 11.01V12.583C31.463 13.057 31.181 13.41 30.698 13.505L29.718 13.695V13.694Z" fill="#001A3A"/>
<path d="M24.993 10.983L22.349 11.593V12.339C22.349 12.691 22.59 12.909 22.939 12.84C23.154 12.8 23.329 12.759 23.329 12.759V13.505C23.329 13.803 22.899 13.993 22.443 13.979C21.798 13.952 21.449 13.451 21.436 12.501C21.45 11.254 22.04 10.521 22.832 10.319C23.222 10.21 23.584 10.264 23.866 10.305C24.55 10.413 24.939 10.088 24.953 9.519C24.966 8.909 24.429 8.529 23.288 8.569C20.792 8.651 19.517 10.468 19.517 12.623C19.517 14.833 20.953 15.81 22.697 15.498C23.677 15.294 24.174 14.969 24.51 14.671C24.845 14.373 24.993 13.925 24.993 13.531V10.983V10.983ZM14.563 3.756C11.637 5.057 9.66301 8.162 9.55601 9.464C9.51601 9.979 10.201 10.06 10.268 9.504C10.885 7.118 12.764 4.867 14.563 3.756V3.756ZM24.241 5.98C25.811 5.586 26.684 5.532 26.698 4.813C26.724 3.62 23.368 2.237 20.282 2.495C23.422 2.712 25.302 3.932 25.302 4.773C25.315 5.315 24.845 5.79 24.242 5.979L24.241 5.98ZM25.208 32.284C27.57 31.349 29.838 29.546 31.1 26.861C31.463 26.088 30.416 25.681 30.12 26.603C29.1841 29.0049 27.4495 31.0111 25.208 32.284V32.284Z" fill="#001A3A"/>
</svg>
